REM DIRINDEX 1\2\6,1\2\7,1\2\8,1\2\9,1\3\10,1\3\11,1\4\12,1\4\13,1\4\14,1\5\15,1\5\16,1\5\17
REM DIRNAME folder01,folder02,folder03,folder04,folder05,folder06,folder07,folder08,folder09,folder10,folder11,folder12,folder13,folder14,folder15,folder16,folder17
TITLE ""
FILE "1900_3_109 sec19_1857_1875.mp3" MP3
  TRACK 01 AUDIO
    TITLE "0:"
    INDEX 01 00:00:00
  TRACK 02 AUDIO
    TITLE "17:cjc020_9700"
    INDEX 01 00:00:13
  TRACK 03 AUDIO
    TITLE "0:"
    INDEX 01 00:01:11
  TRACK 04 AUDIO
    TITLE "16:cjc020_9701"
    INDEX 01 00:01:17
  TRACK 05 AUDIO
    TITLE "0:"
    INDEX 01 00:02:26
  TRACK 06 AUDIO
    TITLE "17:cjc020_9702"
    INDEX 01 00:03:08
  TRACK 07 AUDIO
    TITLE "0:"
    INDEX 01 00:04:21
  TRACK 08 AUDIO
    TITLE "16:cjc020_9703"
    INDEX 01 00:04:27
  TRACK 09 AUDIO
    TITLE "0:"
    INDEX 01 00:05:48
  TRACK 10 AUDIO
    TITLE "17:cjc020_9704"
    INDEX 01 00:06:30
  TRACK 11 AUDIO
    TITLE "0:"
    INDEX 01 00:07:39
  TRACK 12 AUDIO
    TITLE "16:cjc020_9705"
    INDEX 01 00:07:45
  TRACK 13 AUDIO
    TITLE "0:"
    INDEX 01 00:08:60
  TRACK 14 AUDIO
    TITLE "17:cjc020_9706"
    INDEX 01 00:09:45
  TRACK 15 AUDIO
    TITLE "0:"
    INDEX 01 00:10:41
  TRACK 16 AUDIO
    TITLE "16:cjc020_9707"
    INDEX 01 00:10:49
  TRACK 17 AUDIO
    TITLE "0:"
    INDEX 01 00:11:64
  TRACK 18 AUDIO
    TITLE "17:cjc020_9708"
    INDEX 01 00:12:46
  TRACK 19 AUDIO
    TITLE "0:"
    INDEX 01 00:13:71
  TRACK 20 AUDIO
    TITLE "16:cjc020_9709"
    INDEX 01 00:14:02
  TRACK 21 AUDIO
    TITLE "0:"
    INDEX 01 00:15:27
  TRACK 22 AUDIO
    TITLE "17:cjc020_9710"
    INDEX 01 00:16:08
  TRACK 23 AUDIO
    TITLE "0:"
    INDEX 01 00:17:23
  TRACK 24 AUDIO
    TITLE "16:cjc020_9711"
    INDEX 01 00:17:27
  TRACK 25 AUDIO
    TITLE "0:"
    INDEX 01 00:18:17
  TRACK 26 AUDIO
    TITLE "17:cjc020_9712"
    INDEX 01 00:19:03
  TRACK 27 AUDIO
    TITLE "0:"
    INDEX 01 00:20:47
  TRACK 28 AUDIO
    TITLE "16:cjc020_9713"
    INDEX 01 00:20:51
  TRACK 29 AUDIO
    TITLE "0:"
    INDEX 01 00:21:74
  TRACK 30 AUDIO
    TITLE "17:cjc020_9714"
    INDEX 01 00:22:54
  TRACK 31 AUDIO
    TITLE "0:"
    INDEX 01 00:24:18
  TRACK 32 AUDIO
    TITLE "16:cjc020_9715"
    INDEX 01 00:24:25
  TRACK 33 AUDIO
    TITLE "0:"
    INDEX 01 00:25:33
  TRACK 34 AUDIO
    TITLE "17:cjc020_9716"
    INDEX 01 00:26:17
  TRACK 35 AUDIO
    TITLE "0:"
    INDEX 01 00:27:30
  TRACK 36 AUDIO
    TITLE "16:cjc020_9717"
    INDEX 01 00:27:34
  TRACK 37 AUDIO
    TITLE "0:"
    INDEX 01 00:28:35
  TRACK 38 AUDIO
    TITLE "17:cjc020_9718"
    INDEX 01 00:29:21
  TRACK 39 AUDIO
    TITLE "0:"
    INDEX 01 00:30:30
  TRACK 40 AUDIO
    TITLE "16:cjc020_9719"
    INDEX 01 00:30:32
  TRACK 41 AUDIO
    TITLE "0:"
    INDEX 01 00:31:53
  TRACK 42 AUDIO
    TITLE "17:cjc020_9720"
    INDEX 01 00:32:37
  TRACK 43 AUDIO
    TITLE "0:"
    INDEX 01 00:35:12
  TRACK 44 AUDIO
    TITLE "16:cjc020_9721"
    INDEX 01 00:35:15
  TRACK 45 AUDIO
    TITLE "0:"
    INDEX 01 00:36:27
  TRACK 46 AUDIO
    TITLE "17:cjc020_9722"
    INDEX 01 00:37:14
  TRACK 47 AUDIO
    TITLE "0:"
    INDEX 01 00:39:27
  TRACK 48 AUDIO
    TITLE "16:cjc020_9723"
    INDEX 01 00:39:31
  TRACK 49 AUDIO
    TITLE "0:"
    INDEX 01 00:40:42
  TRACK 50 AUDIO
    TITLE "17:cjc020_9724"
    INDEX 01 00:41:24
  TRACK 51 AUDIO
    TITLE "0:"
    INDEX 01 00:44:09
  TRACK 52 AUDIO
    TITLE "16:cjc020_9725"
    INDEX 01 00:44:12
  TRACK 53 AUDIO
    TITLE "0:"
    INDEX 01 00:45:35
  TRACK 54 AUDIO
    TITLE "17:cjc020_9726"
    INDEX 01 00:46:17
  TRACK 55 AUDIO
    TITLE "0:"
    INDEX 01 00:47:21
  TRACK 56 AUDIO
    TITLE "16:cjc020_9727"
    INDEX 01 00:47:28
  TRACK 57 AUDIO
    TITLE "0:"
    INDEX 01 00:48:32
  TRACK 58 AUDIO
    TITLE "17:cjc020_9728"
    INDEX 01 00:49:18
  TRACK 59 AUDIO
    TITLE "0:"
    INDEX 01 00:50:17
  TRACK 60 AUDIO
    TITLE "16:cjc020_9729"
    INDEX 01 00:50:25
  TRACK 61 AUDIO
    TITLE "0:"
    INDEX 01 00:51:26
  TRACK 62 AUDIO
    TITLE "17:cjc020_9730"
    INDEX 01 00:52:12
  TRACK 63 AUDIO
    TITLE "0:"
    INDEX 01 00:53:27
  TRACK 64 AUDIO
    TITLE "16:cjc020_9731"
    INDEX 01 00:53:31
  TRACK 65 AUDIO
    TITLE "0:"
    INDEX 01 00:54:40
  TRACK 66 AUDIO
    TITLE "17:cjc020_9732"
    INDEX 01 00:55:22
  TRACK 67 AUDIO
    TITLE "0:"
    INDEX 01 00:56:57
  TRACK 68 AUDIO
    TITLE "16:cjc020_9733"
    INDEX 01 00:56:65
  TRACK 69 AUDIO
    TITLE "0:"
    INDEX 01 00:57:74
  TRACK 70 AUDIO
    TITLE "17:cjc020_9734"
    INDEX 01 00:58:66
  TRACK 71 AUDIO
    TITLE "0:"
    INDEX 01 01:00:15
  TRACK 72 AUDIO
    TITLE "16:cjc020_9735"
    INDEX 01 01:00:17
  TRACK 73 AUDIO
    TITLE "0:"
    INDEX 01 01:01:38
  TRACK 74 AUDIO
    TITLE "17:cjc020_9736"
    INDEX 01 01:02:24
  TRACK 75 AUDIO
    TITLE "0:"
    INDEX 01 01:03:45
  TRACK 76 AUDIO
    TITLE "16:cjc020_9737"
    INDEX 01 01:03:47
  TRACK 77 AUDIO
    TITLE "0:"
    INDEX 01 01:04:54
